<mxfile host="Electron" modified="2024-05-10T12:48:55.619Z" agent="Mozilla/5.0 (Windows NT 10.0; Win64; x64) AppleWebKit/537.36 (KHTML, like Gecko) draw.io/24.2.5 Chrome/120.0.6099.109 Electron/28.1.0 Safari/537.36" etag="bocBiQX-a43Bi4ZKtrCa" version="24.2.5" type="device" pages="2">
  <diagram name="namig-convention" id="rhSzfD0FhzZ60ZLFLEin">
    <mxGraphModel dx="1434" dy="836" grid="1" gridSize="10" guides="1" tooltips="1" connect="1" arrows="1" fold="1" page="1" pageScale="1" pageWidth="827" pageHeight="1169" math="0" shadow="0">
      <root>
        <mxCell id="2u8QQZtQnn4IRKNy4I4u-0" />
        <mxCell id="2u8QQZtQnn4IRKNy4I4u-1" parent="2u8QQZtQnn4IRKNy4I4u-0" />
        <mxCell id="2u8QQZtQnn4IRKNy4I4u-2" value="vnet-sample-dev-nwe-001" style="text;html=1;align=center;verticalAlign=middle;whiteSpace=wrap;rounded=0;fontSize=34;" vertex="1" parent="2u8QQZtQnn4IRKNy4I4u-1">
          <mxGeometry x="117" y="132.5" width="420" height="30" as="geometry" />
        </mxCell>
        <mxCell id="2u8QQZtQnn4IRKNy4I4u-3" value="Resource&lt;div style=&quot;font-size: 17px;&quot;&gt;Type&lt;/div&gt;" style="rounded=0;whiteSpace=wrap;html=1;fontSize=17;" vertex="1" parent="2u8QQZtQnn4IRKNy4I4u-1">
          <mxGeometry x="95" y="200" width="91" height="56" as="geometry" />
        </mxCell>
        <mxCell id="2u8QQZtQnn4IRKNy4I4u-4" value="Workload/&lt;div style=&quot;font-size: 17px;&quot;&gt;Application&lt;/div&gt;" style="rounded=0;whiteSpace=wrap;html=1;fontSize=17;" vertex="1" parent="2u8QQZtQnn4IRKNy4I4u-1">
          <mxGeometry x="185" y="200" width="105.5" height="56" as="geometry" />
        </mxCell>
        <mxCell id="2u8QQZtQnn4IRKNy4I4u-5" value="Environment" style="rounded=0;whiteSpace=wrap;html=1;fontSize=17;" vertex="1" parent="2u8QQZtQnn4IRKNy4I4u-1">
          <mxGeometry x="290.5" y="200" width="114.5" height="56" as="geometry" />
        </mxCell>
        <mxCell id="2u8QQZtQnn4IRKNy4I4u-6" value="Azure&lt;div style=&quot;font-size: 17px;&quot;&gt;Region&lt;/div&gt;" style="rounded=0;whiteSpace=wrap;html=1;fontSize=17;" vertex="1" parent="2u8QQZtQnn4IRKNy4I4u-1">
          <mxGeometry x="405" y="200" width="70" height="56" as="geometry" />
        </mxCell>
        <mxCell id="2u8QQZtQnn4IRKNy4I4u-7" value="Instance" style="rounded=0;whiteSpace=wrap;html=1;fontSize=17;" vertex="1" parent="2u8QQZtQnn4IRKNy4I4u-1">
          <mxGeometry x="475" y="200" width="80" height="56" as="geometry" />
        </mxCell>
        <mxCell id="2u8QQZtQnn4IRKNy4I4u-8" value="" style="shape=curlyBracket;whiteSpace=wrap;html=1;rounded=1;flipH=1;labelPosition=right;verticalLabelPosition=middle;align=left;verticalAlign=middle;rotation=90;strokeWidth=2;" vertex="1" parent="2u8QQZtQnn4IRKNy4I4u-1">
          <mxGeometry x="155.5" y="145.5" width="20" height="70" as="geometry" />
        </mxCell>
        <mxCell id="2u8QQZtQnn4IRKNy4I4u-9" value="" style="shape=curlyBracket;whiteSpace=wrap;html=1;rounded=1;flipH=1;labelPosition=right;verticalLabelPosition=middle;align=left;verticalAlign=middle;rotation=90;strokeWidth=2;" vertex="1" parent="2u8QQZtQnn4IRKNy4I4u-1">
          <mxGeometry x="251.5" y="125.5" width="20" height="110" as="geometry" />
        </mxCell>
        <mxCell id="2u8QQZtQnn4IRKNy4I4u-10" value="" style="shape=curlyBracket;whiteSpace=wrap;html=1;rounded=1;flipH=1;labelPosition=right;verticalLabelPosition=middle;align=left;verticalAlign=middle;rotation=90;strokeWidth=2;" vertex="1" parent="2u8QQZtQnn4IRKNy4I4u-1">
          <mxGeometry x="344.38" y="152.375" width="20" height="56.25" as="geometry" />
        </mxCell>
        <mxCell id="2u8QQZtQnn4IRKNy4I4u-11" value="" style="shape=curlyBracket;whiteSpace=wrap;html=1;rounded=1;flipH=1;labelPosition=right;verticalLabelPosition=middle;align=left;verticalAlign=middle;rotation=90;strokeWidth=2;" vertex="1" parent="2u8QQZtQnn4IRKNy4I4u-1">
          <mxGeometry x="414.23" y="150.02" width="20" height="60.96" as="geometry" />
        </mxCell>
        <mxCell id="2u8QQZtQnn4IRKNy4I4u-12" value="" style="shape=curlyBracket;whiteSpace=wrap;html=1;rounded=1;flipH=1;labelPosition=right;verticalLabelPosition=middle;align=left;verticalAlign=middle;rotation=90;strokeWidth=2;" vertex="1" parent="2u8QQZtQnn4IRKNy4I4u-1">
          <mxGeometry x="483.2" y="152.055" width="20" height="56.89" as="geometry" />
        </mxCell>
      </root>
    </mxGraphModel>
  </diagram>
  <diagram name="cover" id="EFw91M3MBH8ARy3N52KL">
    <mxGraphModel dx="1434" dy="836" grid="1" gridSize="10" guides="1" tooltips="1" connect="1" arrows="1" fold="1" page="1" pageScale="1" pageWidth="827" pageHeight="1169" math="0" shadow="0">
      <root>
        <mxCell id="2_HejJVe_jmI2wki_wEb-0" />
        <mxCell id="2_HejJVe_jmI2wki_wEb-1" parent="2_HejJVe_jmI2wki_wEb-0" />
        <mxCell id="2_HejJVe_jmI2wki_wEb-2" value="vnet-sample-dev-nwe-001" style="text;html=1;align=center;verticalAlign=middle;whiteSpace=wrap;rounded=0;fontSize=34;" parent="2_HejJVe_jmI2wki_wEb-1" vertex="1">
          <mxGeometry x="117" y="132.5" width="420" height="30" as="geometry" />
        </mxCell>
        <mxCell id="2_HejJVe_jmI2wki_wEb-3" value="Resource&lt;div style=&quot;font-size: 17px;&quot;&gt;Type&lt;/div&gt;" style="rounded=0;whiteSpace=wrap;html=1;fontSize=17;" parent="2_HejJVe_jmI2wki_wEb-1" vertex="1">
          <mxGeometry x="95" y="200" width="91" height="56" as="geometry" />
        </mxCell>
        <mxCell id="2_HejJVe_jmI2wki_wEb-4" value="Workload/&lt;div style=&quot;font-size: 17px;&quot;&gt;Application&lt;/div&gt;" style="rounded=0;whiteSpace=wrap;html=1;fontSize=17;" parent="2_HejJVe_jmI2wki_wEb-1" vertex="1">
          <mxGeometry x="185" y="200" width="105.5" height="56" as="geometry" />
        </mxCell>
        <mxCell id="2_HejJVe_jmI2wki_wEb-5" value="Environment" style="rounded=0;whiteSpace=wrap;html=1;fontSize=17;" parent="2_HejJVe_jmI2wki_wEb-1" vertex="1">
          <mxGeometry x="290.5" y="200" width="114.5" height="56" as="geometry" />
        </mxCell>
        <mxCell id="2_HejJVe_jmI2wki_wEb-6" value="Azure&lt;div style=&quot;font-size: 17px;&quot;&gt;Region&lt;/div&gt;" style="rounded=0;whiteSpace=wrap;html=1;fontSize=17;" parent="2_HejJVe_jmI2wki_wEb-1" vertex="1">
          <mxGeometry x="405" y="200" width="70" height="56" as="geometry" />
        </mxCell>
        <mxCell id="2_HejJVe_jmI2wki_wEb-7" value="Instance" style="rounded=0;whiteSpace=wrap;html=1;fontSize=17;" parent="2_HejJVe_jmI2wki_wEb-1" vertex="1">
          <mxGeometry x="475" y="200" width="80" height="56" as="geometry" />
        </mxCell>
        <mxCell id="2_HejJVe_jmI2wki_wEb-8" value="" style="shape=curlyBracket;whiteSpace=wrap;html=1;rounded=1;flipH=1;labelPosition=right;verticalLabelPosition=middle;align=left;verticalAlign=middle;rotation=90;strokeWidth=2;" parent="2_HejJVe_jmI2wki_wEb-1" vertex="1">
          <mxGeometry x="155.5" y="145.5" width="20" height="70" as="geometry" />
        </mxCell>
        <mxCell id="2_HejJVe_jmI2wki_wEb-9" value="" style="shape=curlyBracket;whiteSpace=wrap;html=1;rounded=1;flipH=1;labelPosition=right;verticalLabelPosition=middle;align=left;verticalAlign=middle;rotation=90;strokeWidth=2;" parent="2_HejJVe_jmI2wki_wEb-1" vertex="1">
          <mxGeometry x="251.5" y="125.5" width="20" height="110" as="geometry" />
        </mxCell>
        <mxCell id="2_HejJVe_jmI2wki_wEb-10" value="" style="shape=curlyBracket;whiteSpace=wrap;html=1;rounded=1;flipH=1;labelPosition=right;verticalLabelPosition=middle;align=left;verticalAlign=middle;rotation=90;strokeWidth=2;" parent="2_HejJVe_jmI2wki_wEb-1" vertex="1">
          <mxGeometry x="344.38" y="152.375" width="20" height="56.25" as="geometry" />
        </mxCell>
        <mxCell id="2_HejJVe_jmI2wki_wEb-11" value="" style="shape=curlyBracket;whiteSpace=wrap;html=1;rounded=1;flipH=1;labelPosition=right;verticalLabelPosition=middle;align=left;verticalAlign=middle;rotation=90;strokeWidth=2;" parent="2_HejJVe_jmI2wki_wEb-1" vertex="1">
          <mxGeometry x="414.23" y="150.02" width="20" height="60.96" as="geometry" />
        </mxCell>
        <mxCell id="2_HejJVe_jmI2wki_wEb-12" value="" style="shape=curlyBracket;whiteSpace=wrap;html=1;rounded=1;flipH=1;labelPosition=right;verticalLabelPosition=middle;align=left;verticalAlign=middle;rotation=90;strokeWidth=2;" parent="2_HejJVe_jmI2wki_wEb-1" vertex="1">
          <mxGeometry x="483.2" y="152.055" width="20" height="56.89" as="geometry" />
        </mxCell>
        <mxCell id="Ztmr8UHsVivtMQ_IBBzu-0" value="" style="shape=image;verticalLabelPosition=bottom;labelBackgroundColor=default;verticalAlign=top;aspect=fixed;imageAspect=0;image=https://github.com/Azure/ALZ-Bicep/wiki/media/bicep-logo.png;" parent="2_HejJVe_jmI2wki_wEb-1" vertex="1">
          <mxGeometry x="500" y="230" width="130" height="130" as="geometry" />
        </mxCell>
      </root>
    </mxGraphModel>
  </diagram>
</mxfile>
